# xmcd CD database file
#
# Track frame offsets:
#	187
#	19339
#	39712
#	58757
#	78507
#	98614
#	119319
#	143217
#	160827
#	184014
#	203644
#	223427
#	244227
#	260142
#
# Disc length: 3766 seconds
#
# Revision: 7
# Processed by: cddbd v1.5.2PL0 Copyright (c) Steve Scherf et al.
# Submitted via: CDex 1.70beta3
#
DISCID=d00eb40e
DTITLE=高橋真梨子 - Special Best  Sing
DYEAR=1995
DGENRE=JPop
TTITLE0=遥かな人へ
TTITLE1=ハート&ハード
TTITLE2=涙の街角
TTITLE3=そっと…Lovin' you
TTITLE4=ジュン
TTITLE5=So in Love
TTITLE6=テンダネス
TTITLE7=帰り道を教えてよ
TTITLE8=そして愛は
TTITLE9=はがゆい唇
TTITLE10=とまどい小夜曲
TTITLE11=for you…
TTITLE12=桃色吐息
TTITLE13=浪漫詩人
EXTD=YEAR: 1995
EXTT0=
EXTT1=
EXTT2=
EXTT3=
EXTT4=
EXTT5=
EXTT6=
EXTT7=
EXTT8=
EXTT9=
EXTT10=
EXTT11=
EXTT12=
EXTT13=
PLAYORDER=
